<?xml version="1.0" standalone="no"?>
<!DOCTYPE svg PUBLIC "-//W3C//DTD SVG 20010904//EN"
 "http://www.w3.org/TR/2001/REC-SVG-20010904/DTD/svg10.dtd">
<svg version="1.0" xmlns="http://www.w3.org/2000/svg"
 width="760.000000pt" height="723.000000pt" viewBox="0 0 760.000000 723.000000"
 preserveAspectRatio="xMidYMid meet">

<g transform="translate(0.000000,723.000000) scale(0.100000,-0.100000)"
fill="rgba(16, 81, 141, 1)" stroke="none">
<path d="M3720 7224 c-719 -40 -1392 -326 -1915 -812 -463 -431 -786 -1004
-908 -1612 -48 -239 -60 -379 -54 -670 5 -267 14 -355 58 -560 155 -730 575
-1375 1189 -1825 423 -310 933 -505 1480 -565 134 -15 462 -15 605 0 1020 106
1921 716 2393 1620 158 301 260 615 314 965 30 190 32 645 5 830 -83 555 -280
1021 -620 1465 -101 132 -379 409 -517 516 -455 352 -954 559 -1516 628 -125
15 -403 26 -514 20z m475 -54 c427 -48 864 -194 1212 -404 718 -433 1217
-1125 1397 -1936 51 -233 61 -333 60 -640 0 -326 -15 -456 -83 -724 -116 -451
-345 -889 -642 -1226 -73 -83 -257 -265 -332 -329 -753 -640 -1805 -864 -2764
-590 -839 241 -1551 860 -1909 1660 -257 574 -324 1208 -194 1839 89 428 306
885 590 1240 109 135 336 363 470 470 491 391 1027 596 1710 654 72 6 386 -3
485 -14z"/>
<path d="M3610 7129 c-723 -73 -1353 -374 -1851 -885 -582 -597 -885 -1411
-831 -2224 27 -401 115 -741 282 -1088 152 -314 321 -554 575 -808 507 -510
1148 -806 1869 -864 468 -37 964 47 1396 237 347 153 638 352 905 618 601 599
911 1403 864 2241 -88 1569 -1396 2796 -2969 2783 -85 -1 -193 -6 -240 -10z
m584 -114 c892 -104 1681 -617 2135 -1388 508 -864 519 -1940 27 -2816 l-59
-104 -70 6 c-39 2 -83 1 -98 -3 -26 -8 -27 -7 -22 31 7 49 -14 83 -60 98 -59
20 -90 -5 -195 -155 l-21 -31 144 -99 c123 -84 142 -101 130 -113 -12 -12 -37
-5 -177 49 -90 34 -167 64 -173 66 -5 1 -20 -10 -32 -26 l-23 -28 76 -159 c42
-87 78 -160 80 -162 3 -3 16 7 31 21 l26 26 -22 36 -23 36 49 51 49 51 37 -15
c20 -9 37 -20 37 -24 0 -20 -220 -240 -338 -337 -462 -383 -985 -601 -1577
-657 -156 -14 -495 -6 -642 15 -514 76 -987 279 -1382 594 -114 90 -352 326
-437 432 -331 413 -526 859 -611 1400 -14 92 -18 171 -17 400 1 263 3 297 27
435 114 635 382 1146 828 1581 455 442 1020 712 1649 788 159 19 494 20 654 1z
m1856 -4278 c0 -17 -29 -72 -56 -106 -2 -2 -38 20 -73 45 -7 6 63 93 78 97 26
6 51 -12 51 -36z m159 -157 c-34 -50 -66 -93 -73 -97 -6 -3 -6 0 2 8 18 20 16
23 -43 64 -30 20 -55 40 -55 43 0 3 7 14 17 24 13 15 31 18 98 18 61 0 86 4
95 15 33 40 15 6 -41 -75z m-351 -135 c23 -9 42 -20 42 -24 0 -4 -13 -20 -29
-35 l-29 -28 -26 51 c-29 57 -31 65 -13 58 6 -3 31 -13 55 -22z"/>
<path d="M3645 6971 c-3 -6 -3 -80 1 -166 l7 -155 29 0 28 0 1 113 1 112 31
-112 31 -113 33 0 32 0 28 123 28 122 5 -120 5 -120 30 0 c28 0 30 2 28 35 0
19 -1 92 -2 163 l-1 127 -50 0 c-56 0 -46 16 -87 -149 l-19 -74 -30 109 -30
109 -46 3 c-26 2 -49 -2 -53 -7z"/>
<path d="M4084 6817 c-83 -155 -85 -167 -36 -167 16 0 27 10 39 35 17 35 18
35 63 30 84 -11 87 -13 94 -49 4 -19 14 -37 22 -40 25 -10 54 -7 54 5 0 10
-80 323 -84 325 0 1 -17 4 -36 7 l-35 6 -81 -152z m125 -1 c7 -27 10 -50 9
-52 -2 -1 -22 0 -45 3 l-42 5 27 54 c14 30 29 51 33 46 3 -4 12 -29 18 -56z"/>
<path d="M3420 6944 c-8 -1 -47 -8 -86 -14 l-71 -11 19 -107 c38 -219 36 -212
69 -212 25 0 29 4 29 28 -1 15 -4 46 -9 69 -8 39 -7 42 17 46 21 4 37 -6 86
-53 59 -56 63 -58 101 -51 l40 6 -49 52 c-26 29 -57 55 -68 59 -20 6 -19 8 9
30 39 30 47 64 29 109 -19 45 -59 62 -116 49z m54 -76 c17 -29 -5 -52 -63 -64
-28 -7 -53 -9 -55 -5 -2 3 -7 23 -11 43 -7 36 -6 37 27 41 58 7 91 3 102 -15z"/>
<path d="M4535 6739 c-39 -124 -45 -153 -34 -160 34 -22 45 -9 81 99 l37 107
-6 -122 -6 -122 26 -6 c14 -4 30 -4 35 -1 4 2 35 48 67 100 33 52 60 94 62 93
1 -2 -13 -52 -32 -112 -19 -60 -33 -110 -32 -111 1 -1 14 -5 28 -9 27 -7 27
-5 74 137 27 79 50 148 52 155 3 7 -15 17 -44 25 l-48 14 -63 -95 -63 -96 7
116 6 115 -39 12 c-22 7 -45 12 -50 12 -5 0 -31 -68 -58 -151z"/>
<path d="M3009 6853 c-18 -4 -22 -32 -35 -256 l-6 -108 33 14 c30 12 34 18 37
54 l3 41 62 17 61 17 26 -29 c24 -27 29 -28 59 -18 l34 11 -109 129 c-106 126
-124 140 -165 128z m80 -125 c34 -46 32 -54 -17 -64 l-32 -6 0 56 c0 31 4 56
9 56 5 0 23 -19 40 -42z"/>
<path d="M2784 6766 c-25 -11 -35 -26 -53 -77 -13 -35 -28 -77 -34 -93 l-11
-30 -27 62 c-29 63 -42 72 -73 49 -17 -12 -14 -22 44 -153 34 -76 66 -143 70
-147 6 -7 40 4 58 18 1 1 -7 22 -18 47 -17 38 -18 49 -8 76 7 18 16 32 20 32
5 0 36 -20 70 -45 34 -25 68 -45 75 -45 17 0 63 22 63 30 0 6 -108 78 -177
119 -10 5 -6 27 17 89 16 45 26 82 22 82 -4 -1 -21 -7 -38 -14z"/>
<path d="M4980 6613 c-58 -52 -116 -105 -129 -117 l-24 -24 30 -16 c29 -14 31
-14 53 9 29 31 34 31 99 -1 53 -25 53 -25 48 -65 -5 -36 -3 -41 25 -55 16 -8
31 -14 33 -12 2 2 8 59 14 128 6 69 14 145 17 170 5 44 4 46 -28 62 l-33 15
-105 -94z m95 -57 c-4 -31 -9 -56 -11 -56 -2 0 -19 8 -39 17 l-35 17 42 43
c23 23 44 41 46 39 2 -3 1 -29 -3 -60z"/>
<path d="M3770 6603 c-547 -25 -1071 -234 -1480 -592 -438 -385 -715 -886
-806 -1461 -25 -156 -26 -557 -1 -708 68 -417 243 -818 495 -1136 83 -105 274
-298 378 -382 359 -289 812 -476 1272 -525 159 -17 482 -7 637 20 1017 175
1802 948 1986 1956 91 503 12 1042 -221 1500 -431 848 -1318 1369 -2260 1328z
m435 -128 c757 -113 1397 -581 1744 -1274 23 -46 47 -95 52 -109 9 -22 8 -23
-6 -12 -9 7 -43 66 -76 132 -295 577 -817 1008 -1429 1178 -63 17 -126 35
-140 40 -14 5 -32 8 -40 8 -8 0 -71 8 -140 17 -147 20 -430 23 -565 6 -534
-69 -999 -300 -1370 -682 -331 -341 -533 -740 -622 -1229 -25 -139 -29 -455
-8 -629 30 -241 108 -505 214 -720 22 -46 41 -91 41 -100 0 -9 7 -27 16 -39 9
-13 14 -25 11 -28 -6 -6 -46 65 -101 181 -126 263 -195 534 -215 840 -21 312
26 633 135 931 307 834 1074 1421 1964 1505 123 11 407 3 535 -16z m198 -547
c771 -631 780 -639 791 -635 6 2 11 8 13 14 3 8 -229 204 -447 378 -21 17 -73
59 -116 95 -44 35 -227 186 -409 334 -181 148 -339 278 -350 289 -20 19 -20
19 115 13 74 -4 184 -15 244 -25 l109 -19 56 -54 c31 -30 132 -126 226 -214
246 -231 314 -295 354 -334 173 -168 365 -345 375 -345 35 0 -11 52 -204 236
-119 112 -329 312 -468 443 -139 131 -251 240 -249 242 7 7 202 -58 306 -103
179 -76 195 -88 379 -286 174 -187 504 -543 672 -725 52 -57 105 -123 117
-147 20 -38 73 -171 73 -181 0 -3 -70 52 -155 121 -85 70 -160 123 -165 120
-6 -4 68 -69 163 -146 l173 -140 28 -106 c15 -58 25 -107 22 -110 -2 -3 -61
41 -131 98 -69 57 -132 107 -140 112 -21 11 -32 -21 -12 -36 8 -7 80 -65 160
-130 138 -112 145 -120 149 -158 2 -21 0 -38 -3 -37 -4 2 -111 82 -237 178
l-230 175 -4 45 -3 45 -60 5 c-53 4 -69 11 -124 52 -53 40 -60 47 -42 53 32
10 38 45 11 67 -28 23 -41 23 -73 -2 l-25 -20 -147 113 c-81 61 -218 166 -304
231 -372 283 -496 378 -663 506 -97 74 -271 207 -386 295 -116 88 -208 162
-205 165 6 6 100 17 166 19 l48 1 602 -492z m-807 409 c38 -29 173 -132 299
-228 127 -97 356 -272 510 -389 154 -118 336 -257 405 -309 69 -53 166 -126
215 -164 50 -38 159 -121 244 -186 l153 -116 -82 -5 -83 -5 73 -57 c40 -32 69
-58 64 -58 -5 0 -131 94 -281 208 -283 216 -409 311 -759 577 -774 588 -984
748 -984 755 0 8 81 27 126 29 23 1 48 -12 100 -52z m250 -392 c289 -220 579
-440 644 -490 65 -49 281 -214 481 -365 200 -151 377 -288 395 -305 l32 -30
-18 -250 c-11 -137 -19 -265 -19 -282 l-1 -33 -79 0 c-59 0 -91 5 -127 22 -64
28 -127 29 -182 2 l-42 -22 -1038 13 c-904 12 -1042 15 -1074 29 -47 20 -120
20 -159 1 -19 -11 -50 -15 -87 -13 l-57 3 -6 420 c-10 709 -11 718 -25 265 -6
-234 -12 -482 -13 -552 -1 -124 -2 -128 -23 -128 -21 0 -21 1 -15 148 3 81 11
327 18 547 14 469 4 433 144 528 l90 61 665 24 c366 14 667 26 668 28 2 1 1
12 -3 24 l-7 21 -751 -6 -752 -7 -48 -51 c-26 -29 -69 -76 -94 -105 l-46 -52
28 -41 c24 -37 26 -47 21 -107 -3 -37 -10 -236 -17 -442 -6 -206 -12 -381 -14
-387 -7 -22 -80 -15 -131 12 -68 36 -105 31 -150 -22 l-21 -25 -43 31 c-57 41
-98 41 -144 1 l-34 -31 -45 31 c-25 16 -59 33 -76 36 -36 8 -37 14 -17 129
107 605 459 1140 970 1477 113 74 268 157 371 199 109 43 277 99 292 96 7 -1
249 -182 539 -402z m1385 15 c236 -183 433 -410 589 -675 l23 -40 -25 25 c-14
14 -144 153 -288 310 -145 157 -290 314 -323 350 -118 127 -124 133 -101 121
12 -6 69 -47 125 -91z m819 -997 c36 -101 48 -153 32 -138 -10 10 -82 199 -82
216 0 5 4 9 9 9 5 0 23 -39 41 -87z m-120 -407 c180 -137 170 -125 170 -206
l0 -71 -242 184 -243 184 -3 77 -3 78 103 -79 c57 -44 155 -119 218 -167z
m192 158 c26 -104 33 -162 18 -148 -6 6 -20 51 -31 100 -10 49 -22 97 -25 108
-4 13 -2 17 7 14 8 -3 22 -36 31 -74z m-277 -289 c248 -186 265 -202 265 -232
l0 -23 -250 0 -250 0 0 216 c0 172 3 214 13 207 6 -5 107 -81 222 -168z m321
7 c-11 -10 -26 20 -26 54 0 50 14 50 24 -1 4 -25 5 -49 2 -53z m13 -140 c1
-40 -3 -71 -8 -68 -10 7 -23 154 -14 169 12 19 22 -25 22 -101z m-3 -119 c-10
-10 -19 5 -10 18 6 11 8 11 12 0 2 -7 1 -15 -2 -18z m-1 -175 c-31 -301 -102
-553 -230 -814 -494 -1003 -1642 -1511 -2714 -1199 -384 112 -715 310 -998
597 -111 112 -173 186 -248 292 -77 109 -27 73 61 -44 75 -101 411 -450 433
-450 5 0 61 -34 123 -76 205 -138 475 -258 717 -319 212 -53 270 -59 551 -60
281 0 318 4 535 55 170 40 308 90 470 170 536 264 937 707 1145 1265 19 50 38
93 43 96 9 7 52 212 92 447 10 56 20 102 22 102 2 0 1 -28 -2 -62z m-4373 -89
c162 -47 110 -13 593 -384 121 -93 239 -184 263 -202 27 -20 38 -35 30 -37 -7
-3 -76 -14 -153 -26 -199 -30 -384 -68 -497 -101 -54 -16 -103 -29 -110 -29
-15 0 -50 58 -43 70 3 5 18 18 34 29 l28 20 39 -29 c22 -16 46 -30 54 -30 20
0 334 71 340 77 5 5 -92 98 -167 160 l-43 35 -64 -12 c-57 -11 -66 -15 -82
-46 l-19 -35 -104 3 -103 3 -28 76 c-35 94 -85 295 -104 412 -7 48 -12 87 -10
87 2 0 67 -19 146 -41z m2305 -14 c259 -50 511 -184 767 -409 l69 -60 -6 -81
c-6 -101 -30 -158 -95 -228 l-50 -52 29 -34 c16 -19 27 -36 25 -38 -1 -2 -63
-8 -137 -13 -259 -18 -259 -18 -259 -46 0 -22 4 -24 44 -24 23 0 71 -3 105 -6
58 -7 62 -9 68 -36 7 -35 17 -42 49 -34 17 5 31 20 44 49 18 41 21 43 92 59
40 9 74 16 75 15 1 -1 -64 -56 -143 -121 -79 -66 -144 -124 -144 -131 0 -26
258 -386 304 -424 9 -7 16 -18 16 -23 0 -17 -242 -126 -380 -172 -259 -86
-504 -122 -775 -113 -195 6 -317 24 -500 72 -204 53 -381 126 -553 227 -68 40
-193 122 -221 144 -6 5 217 255 253 285 17 14 115 87 219 163 l187 138 -32 40
c-18 22 -40 50 -50 62 l-16 21 441 -3 c361 -2 453 -5 503 -18 58 -15 65 -14
127 5 99 30 202 41 397 41 172 0 179 1 185 21 4 11 5 22 3 23 -1 2 -266 8
-588 15 -322 6 -696 14 -833 18 l-247 6 -11 41 c-6 23 -17 48 -25 56 -12 14
-10 18 16 33 27 16 49 17 297 7 258 -11 269 -12 306 -36 33 -21 53 -25 161
-31 111 -5 132 -4 210 18 78 21 86 26 86 48 l0 24 167 -6 c91 -4 215 -7 275
-7 119 0 123 -2 93 -60 -18 -34 -22 -32 95 -49 60 -9 67 -8 88 13 21 20 23 30
20 111 l-3 89 -36 -32 -37 -32 -214 0 c-118 0 -493 3 -832 7 l-618 6 -47 58
c-25 32 -50 58 -54 58 -4 1 -19 -11 -33 -26 l-25 -27 48 -48 47 -48 -62 0
c-58 0 -122 20 -122 38 0 14 160 142 272 219 175 119 365 202 545 238 94 18
322 19 420 0z m1842 -517 c-110 -282 -291 -550 -525 -779 -105 -102 -269 -232
-358 -284 l-43 -25 -116 117 c-64 65 -111 119 -104 121 7 1 48 -6 92 -17 43
-11 81 -18 83 -16 2 2 -2 23 -9 46 -12 37 -19 44 -54 53 -35 10 -40 16 -43 42
-3 28 2 34 45 59 26 16 82 58 123 95 112 101 375 288 421 300 77 21 133 -16
146 -94 l6 -36 -126 0 c-73 0 -128 -4 -132 -10 -8 -13 -23 -11 157 -18 l158
-7 2 224 3 224 145 53 c80 29 150 53 157 53 7 1 -5 -40 -28 -101z m-3118 -265
c69 -116 69 -125 1 -230 -76 -118 -359 -399 -391 -388 -12 3 -78 63 -147 133
-90 90 -122 128 -110 130 26 5 64 -24 70 -55 l7 -28 132 12 c73 6 145 12 161
12 l28 1 -3 113 c-5 129 -17 159 -77 184 -55 23 -187 10 -261 -25 l-56 -27 -8
-80 c-4 -43 -10 -82 -13 -85 -3 -3 -19 11 -36 30 -46 54 -120 161 -116 166 2
2 51 26 109 53 99 47 218 89 318 112 44 11 284 46 326 48 15 1 32 -19 66 -76z
m-921 -113 c6 -11 8 -20 6 -20 -3 0 -10 9 -16 20 -6 11 -8 20 -6 20 3 0 10 -9
16 -20z"/>
<path d="M5514 5369 c-10 -17 13 -36 27 -22 12 12 4 33 -11 33 -5 0 -12 -5
-16 -11z"/>
<path d="M5326 5304 c-30 -30 -12 -64 34 -64 28 0 50 16 50 36 0 19 -29 44
-50 44 -10 0 -26 -7 -34 -16z"/>
<path d="M5504 5199 c-3 -6 -2 -15 4 -21 13 -13 32 -2 32 18 0 16 -26 19 -36
3z"/>
<path d="M1830 3620 c0 -15 7 -20 25 -20 18 0 25 5 25 20 0 15 -7 20 -25 20
-18 0 -25 -5 -25 -20z"/>
<path d="M1920 3590 c0 -15 7 -20 25 -20 18 0 25 5 25 20 0 15 -7 20 -25 20
-18 0 -25 -5 -25 -20z"/>
<path d="M1840 3541 c0 -10 9 -21 19 -24 24 -6 31 0 31 25 0 13 -7 18 -25 18
-18 0 -25 -5 -25 -19z"/>
<path d="M1947 3540 c-3 -12 -14 -20 -26 -20 -12 0 -21 -6 -21 -15 0 -8 -3
-15 -7 -16 -47 -4 -56 -11 -47 -33 9 -24 54 -21 54 4 0 15 7 20 25 20 18 0 25
5 25 20 0 15 7 20 25 20 18 0 25 5 25 20 0 14 -7 20 -24 20 -15 0 -26 -7 -29
-20z"/>
<path d="M2010 3510 c0 -17 5 -21 28 -18 16 2 27 9 27 18 0 9 -11 16 -27 18
-23 3 -28 -1 -28 -18z"/>
<path d="M3128 2693 c-50 -4 -58 -12 -33 -33 17 -14 184 -15 198 -1 4 4 5 15
1 24 -6 17 -42 19 -166 10z"/>
<path d="M3624 2653 c-189 -3 -202 -5 -207 -23 -3 -10 -2 -21 1 -24 3 -3 130
-6 283 -6 l277 0 89 -34 c85 -32 95 -33 279 -40 l192 -7 7 61 c4 34 5 63 3 65
-2 3 -21 -10 -42 -27 l-38 -31 -107 36 -106 37 -215 -2 c-118 -2 -306 -4 -416
-5z"/>
<path d="M3085 2521 l-40 -6 38 -19 c35 -17 56 -18 234 -13 107 3 197 8 200
11 3 3 3 12 0 21 -6 13 -34 15 -199 14 -106 -1 -211 -5 -233 -8z"/>
<path d="M4163 2333 c-62 -2 -113 -7 -113 -11 0 -4 12 -15 25 -25 22 -16 40
-17 170 -11 80 4 145 10 145 15 0 31 -14 39 -64 37 -28 -1 -102 -4 -163 -5z"/>
<path d="M4540 2330 l-125 -5 36 -22 c34 -22 43 -22 177 -16 78 3 142 10 142
14 0 30 -14 39 -59 37 -25 -1 -102 -5 -171 -8z"/>
<path d="M5238 6457 c-43 -68 -80 -130 -83 -139 -4 -9 3 -21 19 -31 25 -17 25
-17 62 43 20 33 38 60 40 60 8 0 104 -64 104 -69 0 -3 -15 -32 -34 -63 l-35
-57 24 -15 c14 -9 26 -16 29 -16 3 0 145 223 169 266 3 6 -7 18 -22 27 l-29
17 -33 -55 -33 -54 -35 20 c-78 44 -77 41 -42 103 l32 54 -23 16 c-12 9 -25
16 -28 16 -3 0 -40 -55 -82 -123z"/>
<path d="M2347 6534 c-16 -9 -27 -21 -24 -27 2 -7 17 -82 32 -167 16 -85 30
-157 32 -159 1 -2 15 1 29 8 24 11 26 16 22 56 -5 43 -5 44 44 74 59 37 61 37
97 10 27 -20 30 -20 55 -4 14 10 26 20 25 24 0 7 -260 193 -275 197 -5 2 -22
-4 -37 -12z m99 -106 c24 -17 44 -34 44 -38 0 -7 -49 -34 -64 -35 -5 0 -15 24
-21 53 -7 28 -10 52 -8 52 3 0 25 -14 49 -32z"/>
<path d="M2174 6419 l-21 -21 44 -110 c24 -60 43 -112 41 -114 -2 -1 -50 24
-106 58 -99 59 -103 60 -127 44 -14 -9 -25 -20 -25 -25 0 -4 57 -41 128 -81
70 -41 136 -79 147 -86 17 -11 24 -9 47 11 l27 23 -35 93 c-76 205 -86 229
-93 229 -3 0 -16 -9 -27 -21z"/>
<path d="M5555 6224 c-77 -42 -144 -80 -150 -86 -7 -6 -1 -16 15 -28 23 -18
25 -18 60 0 l36 18 48 -42 49 -42 -12 -37 c-12 -35 -11 -39 11 -57 12 -11 26
-19 30 -20 6 0 108 308 108 328 0 8 -42 42 -52 42 -2 0 -66 -34 -143 -76z
m100 -63 c-9 -28 -20 -51 -25 -51 -5 0 -21 10 -36 23 l-26 23 48 32 c27 17 50
29 52 27 2 -2 -4 -26 -13 -54z"/>
<path d="M1900 6175 l-23 -25 46 -43 47 -42 -47 -48 -46 -48 -42 41 c-46 45
-55 48 -79 22 -15 -18 -11 -24 94 -128 61 -60 116 -110 123 -112 7 -1 22 7 32
18 19 21 19 22 -35 71 l-54 49 47 47 47 47 50 -49 50 -49 24 24 24 25 -118
112 -117 112 -23 -24z"/>
<path d="M5782 6009 c-82 -148 -82 -150 -65 -174 10 -13 23 -25 30 -25 7 0 82
28 169 61 l156 61 -25 26 -26 25 -112 -47 c-62 -25 -113 -45 -115 -44 -1 2 24
48 57 103 32 55 59 105 59 111 0 6 -10 20 -22 31 l-23 21 -83 -149z"/>
<path d="M5963 5789 c-123 -100 -123 -100 -107 -124 9 -14 19 -25 23 -25 3 0
61 46 129 101 117 96 123 102 109 122 -7 11 -18 22 -23 24 -5 1 -64 -43 -131
-98z"/>
<path d="M1620 5854 c-63 -53 -80 -132 -36 -173 37 -35 78 -30 146 17 66 47
84 51 100 22 23 -44 -36 -101 -89 -87 -13 3 -22 -3 -30 -21 -7 -14 -8 -29 -4
-33 17 -17 74 -19 103 -4 33 17 75 75 86 118 13 57 -37 117 -98 117 -23 0 -35
-7 -117 -64 -32 -22 -44 -26 -55 -17 -29 24 19 97 58 87 28 -6 67 41 45 55
-28 17 -77 9 -109 -17z"/>
<path d="M6065 5679 c-66 -44 -126 -83 -134 -88 -10 -6 -4 -22 29 -74 57 -91
86 -111 155 -105 41 4 64 12 98 39 86 65 98 121 44 210 -52 85 -61 99 -67 98
-3 0 -59 -36 -125 -80z m145 -49 c11 -21 20 -46 20 -53 0 -24 -40 -66 -81 -87
-60 -31 -84 -26 -119 22 -17 23 -27 45 -22 50 14 14 166 108 174 108 4 0 17
-18 28 -40z"/>
<path d="M1460 5621 c-5 -11 -10 -24 -10 -29 0 -5 61 -45 136 -88 l137 -78 19
24 c10 13 15 27 11 31 -12 12 -266 159 -275 159 -4 0 -12 -9 -18 -19z"/>
<path d="M1401 5514 c-11 -24 -7 -30 48 -92 32 -37 68 -76 80 -86 11 -11 21
-22 21 -26 0 -4 -48 1 -107 11 -60 11 -115 19 -124 19 -20 0 -45 -50 -29 -60
5 -3 81 -16 168 -29 l157 -22 18 22 c10 12 17 28 15 35 -4 16 -217 254 -227
254 -4 0 -13 -12 -20 -26z"/>
<path d="M6308 5371 c-53 -83 -61 -91 -117 -117 -34 -14 -61 -30 -61 -35 0 -4
5 -19 11 -33 l12 -25 59 30 60 30 112 -14 c61 -8 112 -13 114 -11 2 1 -3 15
-12 32 -17 33 -39 42 -108 42 -29 0 -48 5 -48 11 0 7 16 34 35 60 19 27 35 53
35 59 0 14 -22 60 -29 60 -3 0 -32 -40 -63 -89z"/>
<path d="M6193 5055 c10 -32 13 -35 51 -35 l41 0 22 -61 21 -62 -30 -25 c-24
-20 -28 -30 -23 -51 10 -39 18 -43 45 -18 25 22 233 199 238 202 1 1 -3 16 -9
33 -13 38 -18 39 -220 46 l-147 5 11 -34z m237 -75 c-25 -21 -48 -39 -52 -40
-6 0 -28 55 -28 71 0 5 28 9 63 9 l62 0 -45 -40z"/>
<path d="M1325 4983 c-77 -8 -145 -20 -152 -26 -6 -7 -13 -23 -15 -36 -2 -20
15 -38 112 -113 178 -138 164 -131 174 -83 5 26 2 33 -24 50 -34 23 -35 30
-12 100 16 47 19 50 55 53 30 3 40 9 47 28 20 51 31 49 -185 27z m35 -72 c0
-12 -21 -71 -26 -71 -2 0 -24 15 -50 33 l-46 32 34 6 c51 10 88 10 88 0z"/>
<path d="M6438 4771 c-76 -15 -140 -30 -142 -32 -2 -2 6 -52 17 -111 21 -107
21 -108 49 -108 15 0 28 1 28 3 0 1 -7 38 -15 81 -8 44 -14 80 -13 82 2 1 59
13 128 27 l125 24 0 29 c0 39 -10 39 -177 5z"/>
<path d="M1377 4663 c-3 -5 -8 -38 -12 -75 -7 -68 -7 -68 -39 -68 -17 0 -74 7
-126 15 -126 19 -120 20 -120 -18 l0 -33 157 -22 c86 -12 158 -20 160 -18 5 4
33 183 33 209 0 11 -8 17 -24 17 -14 0 -27 -3 -29 -7z"/>
<path d="M6340 4466 c0 -33 3 -36 40 -46 28 -8 40 -16 40 -29 0 -10 3 -39 6
-64 6 -45 6 -46 -30 -63 -31 -15 -36 -23 -36 -51 0 -18 5 -33 11 -33 5 0 77
34 160 76 148 75 149 76 149 109 l0 34 -87 27 c-49 14 -117 34 -153 45 -36 11
-73 22 -82 25 -15 4 -18 -1 -18 -30z m221 -93 c16 -3 29 -9 29 -12 0 -7 -89
-51 -103 -51 -4 0 -7 18 -7 41 0 39 1 41 26 35 15 -4 39 -10 55 -13z"/>
<path d="M1366 4387 c-10 -7 -41 -27 -68 -44 -57 -37 -58 -38 -58 -20 0 7 -9
23 -21 36 -17 18 -30 21 -66 19 -70 -5 -87 -34 -91 -157 l-4 -98 93 -6 c50 -4
125 -7 166 -7 l74 0 -3 33 -3 32 -69 3 c-65 3 -68 4 -62 25 3 12 6 25 6 29 0
4 29 25 64 48 60 39 76 60 76 103 0 20 -7 21 -34 4z m-168 -146 l3 -62 -43 3
-42 3 3 55 c3 62 20 84 54 71 19 -7 22 -17 25 -70z"/>
<path d="M6580 4145 c-82 -52 -88 -54 -157 -54 l-73 -1 0 -30 c0 -25 4 -30 25
-31 14 -1 30 -3 35 -4 6 -1 27 -3 48 -4 29 -1 60 -15 121 -56 45 -30 86 -55
92 -55 5 0 9 15 9 33 0 30 -6 36 -60 68 -33 18 -58 38 -57 44 2 5 29 23 60 40
53 28 57 32 57 68 0 20 -3 37 -7 36 -5 -1 -46 -25 -93 -54z"/>
<path d="M1245 4033 c-22 -1 -72 -5 -111 -9 l-71 -5 7 -32 c4 -18 11 -31 16
-30 5 1 73 5 151 9 77 3 147 10 153 14 8 5 10 18 6 34 -6 24 -10 26 -59 24
-28 -1 -70 -3 -92 -5z"/>
<path d="M6346 3918 c-10 -38 -7 -43 29 -62 23 -13 34 -25 31 -35 -3 -9 -8
-37 -12 -64 -5 -41 -10 -48 -33 -53 -43 -9 -56 -20 -59 -51 l-3 -30 168 35
c92 19 171 40 175 46 4 6 8 22 8 36 0 22 -20 37 -145 113 -79 48 -146 87 -149
87 -2 0 -6 -10 -10 -22z m177 -147 l48 -28 -57 -11 c-72 -15 -74 -15 -70 1 3
6 7 24 10 40 4 15 10 27 14 27 4 0 29 -13 55 -29z"/>
<path d="M1267 3890 c-15 -12 -27 -28 -27 -36 0 -17 0 -17 -38 2 -27 13 -36
13 -59 2 -49 -23 -57 -52 -44 -149 7 -47 16 -91 21 -98 6 -11 37 -8 161 14 85
14 156 28 158 30 2 2 -4 47 -14 100 -19 110 -40 143 -95 151 -27 4 -42 1 -63
-16z m81 -62 c6 -7 15 -37 20 -66 10 -57 15 -52 -59 -66 -12 -3 -19 6 -23 26
-10 51 -7 106 7 111 22 10 44 7 55 -5z m-133 -38 c3 -5 8 -31 12 -58 5 -49 5
-49 -27 -56 -18 -3 -35 -5 -37 -3 -7 8 -15 97 -10 111 7 18 52 22 62 6z"/>
<path d="M1380 3371 l-22 -61 -72 0 -71 0 55 -36 c30 -21 57 -38 58 -40 2 -1
-5 -29 -17 -60 -11 -32 -19 -60 -17 -62 2 -2 27 13 56 34 l51 37 53 -37 c29
-20 55 -36 59 -36 4 0 -2 23 -13 50 -11 28 -20 57 -20 64 0 7 24 28 53 47 l52
34 -72 3 c-61 2 -73 6 -74 20 0 9 -8 37 -18 61 l-18 44 -23 -62z"/>
<path d="M6336 3323 c-10 -27 -19 -53 -21 -60 -3 -7 -30 -13 -72 -15 l-68 -3
53 -34 c28 -18 52 -37 52 -42 0 -5 -9 -32 -20 -61 -11 -29 -20 -54 -20 -56 0
-1 25 13 55 33 31 19 57 35 60 35 3 0 30 -16 61 -36 44 -28 55 -32 50 -18 -22
53 -38 106 -34 110 3 2 27 20 54 39 l49 35 -66 0 -67 0 -22 60 c-12 33 -24 60
-25 60 -1 0 -10 -21 -19 -47z"/>
<path d="M1652 2774 l-102 -146 17 -29 c10 -16 23 -29 30 -29 16 0 334 88 340
94 7 7 -30 55 -42 56 -5 0 -59 -16 -120 -35 -60 -19 -113 -35 -118 -35 -8 0
28 55 101 152 23 31 42 61 42 65 -1 8 -36 53 -42 53 -1 0 -49 -66 -106 -146z"/>
<path d="M1825 2554 c-88 -30 -163 -59 -168 -63 -4 -4 4 -18 17 -30 22 -21 28
-22 61 -11 20 7 40 8 45 4 4 -5 24 -28 44 -52 l36 -43 -19 -38 -20 -37 23 -29
23 -29 13 25 c7 13 47 86 88 163 l74 138 -19 26 c-11 14 -23 27 -29 28 -5 2
-81 -22 -169 -52z m99 -81 c-15 -26 -29 -50 -32 -53 -2 -3 -17 11 -33 30 l-29
34 58 22 c31 12 59 20 60 19 2 -2 -9 -25 -24 -52z"/>
<path d="M2018 2327 c-64 -68 -113 -128 -109 -133 4 -5 41 -42 83 -83 77 -74
77 -75 98 -56 l21 19 -60 60 -61 61 97 103 96 103 -24 25 -24 24 -117 -123z"/>
<path d="M5518 2341 c-81 -52 -107 -134 -69 -216 22 -48 54 -79 103 -100 64
-26 122 -14 179 37 30 26 69 94 69 119 0 10 -20 39 -44 66 l-44 48 -48 -41
c-56 -47 -59 -53 -40 -79 14 -20 15 -20 38 3 28 26 41 27 57 8 10 -11 9 -21
-3 -45 -47 -90 -161 -78 -206 21 -22 49 -15 82 23 114 24 20 38 25 64 21 28
-5 36 -2 50 19 20 31 9 44 -43 51 -31 3 -48 -1 -86 -26z"/>
<path d="M2216 2146 c-53 -73 -96 -136 -96 -139 0 -8 178 -137 189 -137 6 0
15 9 21 19 9 17 2 26 -52 67 -35 26 -65 49 -67 51 -5 3 50 86 112 168 47 62
48 73 6 95 -14 8 -32 -12 -113 -124z"/>
<path d="M5231 2121 l-24 -19 37 -173 c20 -95 38 -175 41 -177 2 -2 15 4 30
14 24 16 26 22 21 59 -7 42 -7 42 49 79 l56 37 32 -25 33 -25 33 20 33 20 -64
45 c-184 132 -232 164 -242 164 -6 0 -22 -9 -35 -19z m111 -107 l49 -36 -36
-25 c-20 -14 -39 -23 -41 -20 -8 7 -32 117 -27 117 3 0 28 -16 55 -36z"/>
<path d="M2471 1968 l-143 -111 23 -18 c31 -24 34 -24 72 5 l32 23 57 -34 58
-34 -6 -43 c-6 -42 -5 -45 24 -60 36 -19 30 -37 67 189 l25 150 -28 22 c-15
13 -29 23 -32 23 -3 0 -70 -50 -149 -112z m125 -25 c-13 -91 -15 -92 -71 -49
-19 15 -19 16 25 55 25 22 47 40 49 41 2 0 0 -21 -3 -47z"/>
<path d="M5053 2017 c-22 -12 -21 -12 27 -107 27 -52 48 -95 47 -97 -2 -1 -52
27 -112 63 -100 60 -110 64 -137 53 -15 -6 -28 -14 -28 -18 0 -8 140 -284 150
-294 4 -4 19 -3 33 4 l26 12 -50 98 c-27 55 -47 99 -45 99 2 0 52 -29 111 -65
107 -66 129 -72 155 -40 9 10 -5 45 -62 159 -40 80 -77 146 -83 145 -5 0 -20
-5 -32 -12z"/>
<path d="M2774 1917 c-15 -34 -47 -104 -71 -156 -24 -51 -42 -95 -41 -96 21
-17 196 -85 219 -85 64 0 112 85 75 135 -12 17 -10 20 18 34 57 29 60 103 6
142 -14 10 -59 34 -101 53 l-76 34 -29 -61z m131 -50 c43 -24 56 -56 31 -77
-13 -10 -26 -8 -71 10 -30 12 -55 24 -55 27 0 15 33 63 43 63 6 0 30 -11 52
-23z m-74 -113 c50 -24 69 -44 69 -70 0 -40 -32 -48 -92 -23 -29 13 -55 24
-57 26 -6 4 31 83 39 83 4 0 22 -7 41 -16z"/>
<path d="M4679 1859 l-26 -10 -7 -181 c-3 -99 -5 -182 -3 -184 2 -2 18 1 35 7
29 10 32 15 32 53 l0 41 65 23 65 22 29 -32 c27 -30 30 -31 60 -19 17 8 31 15
31 18 0 9 -233 268 -244 270 -6 1 -23 -3 -37 -8z m79 -128 c38 -48 39 -57 8
-65 -13 -3 -31 -9 -40 -12 -14 -5 -16 3 -16 55 0 34 4 61 8 61 5 0 23 -18 40
-39z"/>
<path d="M3027 1699 c-50 -170 -50 -178 -1 -179 17 0 24 12 39 61 10 34 25 63
32 66 7 3 37 -3 66 -14 l55 -18 -21 -68 c-22 -74 -18 -87 28 -87 17 0 27 23
67 157 26 87 44 161 40 165 -4 3 -19 9 -33 13 -24 6 -27 3 -39 -42 -23 -86
-21 -85 -90 -61 -33 11 -60 25 -60 32 0 7 7 34 16 60 18 51 14 61 -26 71 -25
5 -26 2 -73 -156z"/>
<path d="M4559 1818 c-35 -9 -37 -13 -59 -85 l-23 -77 -51 59 c-50 56 -53 58
-89 51 -20 -4 -37 -10 -37 -14 0 -4 35 -43 79 -86 72 -71 80 -83 91 -136 16
-76 21 -83 55 -74 30 7 29 -4 9 122 -5 30 2 62 31 141 20 57 35 104 33 105 -2
2 -19 -1 -39 -6z"/>
<path d="M3576 1741 c-1 -3 18 -82 43 -176 l46 -170 38 0 39 0 74 160 74 160
-33 7 c-17 4 -35 4 -39 0 -3 -4 -28 -58 -54 -120 -28 -68 -50 -108 -54 -100
-4 7 -20 63 -35 125 l-27 111 -35 4 c-19 2 -35 2 -37 -1z"/>
<path d="M4063 1731 c-24 -4 -45 -10 -48 -13 -7 -7 35 -320 44 -330 8 -8 159
16 191 32 49 23 65 58 65 140 -1 154 -69 200 -252 171z m151 -66 c32 -33 48
-146 24 -177 -13 -16 -76 -38 -109 -38 -12 0 -18 14 -22 58 -4 31 -9 83 -13
115 l-7 57 56 0 c37 0 61 -5 71 -15z"/>
<path d="M3910 1647 c0 -46 3 -125 6 -175 l7 -92 29 0 c16 0 31 6 33 13 2 6 1
84 -3 172 l-7 160 -32 3 -33 3 0 -84z"/>
<path d="M227 2396 c-61 -22 -112 -61 -146 -113 l-33 -48 7 -145 c7 -155 -6
-351 -30 -466 -20 -94 -19 -190 3 -262 18 -57 64 -135 96 -161 22 -19 21 -22
-25 -69 -53 -56 -69 -97 -69 -177 0 -94 31 -148 113 -200 44 -28 127 -24 178
9 102 68 117 253 29 360 -41 49 -48 70 -30 81 30 19 89 109 95 145 4 22 11 40
15 40 5 0 71 -37 146 -82 76 -45 178 -99 228 -119 50 -21 92 -44 94 -52 3 -16
-70 -169 -122 -256 -56 -92 -59 -87 94 -163 598 -296 1254 -510 1895 -617 801
-134 1648 -117 2480 50 196 39 522 118 660 159 39 12 113 34 165 50 247 74
729 249 758 275 10 9 0 31 -51 108 -53 79 -137 248 -137 276 0 4 26 15 57 25
77 25 216 97 350 184 61 39 117 72 122 72 6 0 11 -10 11 -22 0 -50 22 -96 70
-150 l51 -57 -31 -27 c-16 -15 -30 -33 -30 -41 0 -7 -4 -13 -9 -13 -20 0 -44
-102 -39 -164 6 -68 24 -111 64 -151 67 -67 183 -59 255 17 44 47 59 88 59
160 0 51 -6 73 -30 114 -16 29 -41 61 -55 72 -14 11 -25 23 -25 26 0 3 16 27
37 53 86 113 111 238 79 404 -26 138 -39 341 -32 519 l5 164 -30 48 c-41 63
-97 107 -162 124 -127 34 -279 -30 -604 -254 -242 -166 -407 -265 -465 -280
-24 -6 -74 -18 -113 -26 -78 -18 -138 -54 -173 -106 -21 -30 -23 -44 -19 -96
3 -42 12 -72 30 -100 26 -40 75 -190 64 -200 -26 -26 -621 -185 -892 -238
-432 -84 -715 -115 -1150 -123 -590 -11 -1108 47 -1665 187 -377 94 -867 258
-856 286 3 7 10 32 16 56 7 24 27 66 47 94 35 53 50 113 39 158 -10 39 -66 97
-114 118 -23 11 -81 26 -128 34 -118 21 -153 39 -603 323 -204 130 -379 202
-480 201 -14 -1 -43 -7 -64 -14z m286 -159 c62 -31 212 -119 333 -196 283
-179 396 -236 500 -255 102 -18 151 -39 166 -71 20 -43 -1 -51 -69 -24 -77 30
-192 32 -244 3 -68 -36 -134 -105 -152 -159 -10 -27 -33 -97 -52 -155 -48
-141 -44 -136 -95 -121 -72 21 -278 136 -568 316 -35 22 -78 38 -124 46 l-70
13 7 55 c4 31 8 163 11 295 4 262 2 255 69 298 25 16 43 18 103 15 65 -4 87
-11 185 -60z m6888 -5 l39 -41 0 -198 c0 -176 12 -381 25 -439 4 -18 -4 -22
-73 -38 -104 -24 -188 -66 -377 -187 -151 -97 -325 -189 -356 -189 -10 0 -33
55 -69 167 -49 149 -60 172 -97 210 -78 81 -181 108 -293 78 -93 -25 -103 -24
-114 7 -21 60 47 109 176 127 98 14 216 80 558 316 277 190 375 238 479 232
60 -3 66 -5 102 -45z m-6002 -638 c57 -17 58 -19 31 -89 l-9 -25 -48 19 c-27
10 -78 28 -116 40 l-67 23 22 17 c13 10 30 21 38 24 29 11 97 7 149 -9z
m-1149 -93 c57 -21 75 -52 66 -112 -5 -33 -18 -56 -50 -92 l-44 -48 -41 47
c-41 47 -56 83 -68 161 -9 63 -2 72 49 66 24 -3 63 -13 88 -22z m6119 -22 c18
-11 31 -22 28 -25 -7 -7 -199 -74 -212 -74 -10 0 -35 61 -35 83 0 11 94 36
140 36 29 1 57 -6 79 -20z m-5134 -64 c134 -59 402 -161 596 -226 492 -163
983 -267 1524 -321 176 -18 944 -18 1115 0 676 69 1232 195 1841 416 70 25
132 46 138 46 6 0 11 -11 11 -24 0 -104 115 -439 193 -563 15 -24 27 -47 27
-52 0 -16 -387 -156 -667 -241 -960 -292 -1905 -395 -2803 -305 -763 77 -1485
281 -2223 629 l-118 55 59 118 c60 119 155 349 188 455 19 63 10 62 119 13z
m6247 -60 c-2 -33 -11 -78 -21 -100 -21 -47 -68 -105 -84 -105 -12 0 -61 55
-84 94 -17 29 -16 87 2 113 18 26 124 63 170 60 18 -2 20 -8 17 -62z m-7182
-392 c0 -91 -19 -123 -73 -123 -58 0 -97 46 -97 114 0 51 15 82 57 122 l38 35
38 -42 c35 -39 37 -46 37 -106z m7167 -95 c9 -76 -42 -143 -103 -136 -34 4
-61 41 -68 95 -7 56 7 100 46 140 l32 33 44 -44 c36 -35 45 -52 49 -88z"/>
<path d="M1376 1118 c-10 -82 -27 -399 -21 -408 6 -9 75 -34 79 -28 2 1 33 57
70 124 37 67 73 130 81 140 13 17 14 16 10 -16 -2 -19 -6 -96 -9 -171 l-5
-136 40 -12 c23 -7 43 -11 45 -9 18 18 202 384 196 390 -4 4 -21 10 -38 14
-27 5 -32 2 -43 -23 -6 -15 -36 -73 -67 -128 l-55 -100 7 152 7 153 -38 16
c-20 8 -43 13 -49 11 -6 -3 -37 -51 -68 -108 -32 -57 -64 -113 -73 -124 -15
-19 -16 -19 -11 10 3 17 8 77 11 135 4 58 9 112 11 121 3 12 -5 20 -27 28 -46
16 -47 15 -53 -31z"/>
<path d="M6063 1063 c-48 -15 -83 -31 -83 -39 0 -7 20 -95 45 -196 25 -101 47
-193 50 -205 5 -20 8 -21 33 -12 15 5 32 11 39 14 8 3 6 24 -8 77 -10 40 -19
76 -19 79 0 4 28 17 62 29 98 36 137 91 119 171 -25 111 -81 131 -238 82z
m141 -69 c17 -16 21 -61 8 -82 -5 -7 -32 -21 -60 -32 l-51 -20 -10 38 c-25 95
-26 89 16 100 56 15 80 14 97 -4z"/>
<path d="M5863 1003 c-13 -2 -23 -10 -23 -16 0 -7 19 -105 42 -220 l43 -207
30 6 c17 3 34 10 39 14 4 4 -12 102 -36 216 -46 218 -45 217 -95 207z"/>
<path d="M5723 963 c-27 -5 -28 -18 -12 -110 6 -35 9 -66 6 -69 -8 -8 -138
-37 -143 -31 -2 2 -11 39 -19 82 -9 43 -17 80 -18 82 -2 1 -20 -2 -40 -8 -31
-8 -36 -14 -32 -32 2 -12 18 -101 35 -197 17 -96 33 -185 35 -196 4 -20 9 -21
41 -14 19 5 37 10 39 12 2 1 -5 45 -14 96 l-18 92 36 10 c20 5 55 12 77 16
l41 6 7 -38 c4 -22 11 -63 17 -93 l11 -53 35 5 c20 4 37 8 39 10 4 3 -57 355
-71 415 -5 22 -10 23 -52 15z"/>
<path d="M1904 916 c-111 -95 -120 -307 -17 -382 146 -107 299 -14 311 187 4
66 1 85 -18 124 -32 66 -85 99 -169 103 -63 4 -68 2 -107 -32z m164 -59 c51
-25 65 -100 37 -195 -25 -82 -85 -113 -154 -78 -36 19 -51 55 -50 119 1 136
72 201 167 154z"/>
<path d="M2276 843 c-3 -16 -20 -113 -37 -217 -34 -204 -34 -206 22 -206 25 0
27 4 39 78 16 103 15 100 44 95 34 -7 41 -16 84 -124 37 -91 39 -94 77 -101
21 -5 40 -6 43 -3 7 7 -48 157 -68 185 l-18 25 36 10 c101 29 110 187 14 229
-29 12 -205 56 -226 56 -2 0 -7 -12 -10 -27z m157 -83 c57 -15 74 -40 57 -84
-11 -29 -11 -29 -76 -23 -36 4 -69 9 -75 13 -6 3 -7 24 -3 52 8 58 11 64 32
58 10 -2 39 -10 65 -16z"/>
<path d="M5210 849 c-40 -16 -69 -50 -81 -91 -8 -32 -7 -46 8 -75 26 -53 58
-72 141 -82 40 -5 79 -15 87 -21 40 -34 -7 -100 -71 -100 -33 0 -66 22 -76 50
-5 15 -78 5 -78 -11 0 -18 28 -64 54 -88 54 -51 191 -30 241 37 30 41 28 132
-5 167 -35 38 -51 44 -130 54 -75 10 -100 22 -100 51 0 24 18 37 62 45 32 6
40 3 62 -20 21 -22 30 -25 61 -19 26 5 35 11 31 21 -3 8 -6 18 -6 23 0 5 -14
22 -31 39 -27 28 -37 31 -87 30 -31 0 -68 -5 -82 -10z"/>
<path d="M2656 779 c-8 -23 -53 -424 -49 -431 2 -5 20 -8 38 -8 37 0 38 1 50
88 4 31 14 51 38 72 34 31 47 37 47 19 0 -6 16 -55 36 -109 l37 -98 48 -10
c27 -5 49 -5 49 0 0 4 -25 67 -55 139 -30 72 -55 136 -55 143 0 7 36 44 79 83
86 77 86 83 2 83 -30 0 -46 -11 -118 -81 -46 -45 -85 -80 -87 -78 -2 2 1 43 6
92 6 48 9 89 6 92 -2 3 -19 8 -36 11 -22 5 -33 2 -36 -7z"/>
<path d="M4813 776 c-39 -6 -74 -13 -77 -16 -5 -6 43 -432 49 -439 2 -2 21 0
41 3 l36 7 -6 52 c-4 29 -9 71 -12 95 l-6 43 38 -3 c35 -3 45 -10 99 -80 51
-65 65 -76 90 -77 68 0 71 9 23 75 -25 32 -58 71 -75 85 l-30 25 29 17 c63 36
73 139 18 197 -25 27 -34 30 -87 29 -32 -1 -90 -7 -130 -13z m168 -92 c16 -44
-4 -71 -61 -83 -85 -18 -87 -17 -94 40 -4 28 -5 54 -2 56 8 8 109 19 129 15
10 -3 23 -15 28 -28z"/>
<path d="M4466 739 c-85 -20 -135 -88 -144 -194 -13 -172 91 -288 231 -256 61
14 98 43 128 101 42 80 21 237 -39 303 -38 42 -111 61 -176 46z m95 -86 c36
-22 59 -78 59 -149 0 -88 -41 -144 -105 -144 -68 0 -108 60 -109 162 -1 53 3
72 20 95 39 52 86 65 135 36z"/>
<path d="M3179 718 c-4 -13 -25 -435 -22 -440 4 -7 72 -12 74 -5 4 11 25 434
22 440 -4 6 -72 11 -74 5z"/>
<path d="M3380 693 c-45 -23 -75 -81 -66 -128 10 -52 43 -82 131 -119 73 -30
80 -36 83 -64 8 -78 -122 -84 -150 -5 -11 29 -16 33 -50 33 -46 0 -49 -15 -15
-80 29 -59 71 -82 146 -82 97 0 151 50 151 141 0 64 -34 101 -125 137 -86 34
-107 53 -89 81 22 36 109 28 124 -11 6 -18 18 -25 45 -28 24 -3 39 0 42 9 7
19 -28 84 -58 105 -38 28 -125 34 -169 11z"/>
<path d="M4035 702 l-41 -3 -28 -139 c-16 -77 -32 -140 -36 -140 -4 0 -20 62
-36 138 l-29 137 -40 0 c-48 0 -49 26 13 -240 l47 -200 44 0 45 0 22 109 c13
60 28 133 34 163 7 30 13 53 15 51 2 -2 20 -66 40 -143 20 -77 38 -148 41
-157 4 -14 16 -18 47 -18 l43 0 38 203 c21 111 40 212 43 225 5 20 2 22 -36
22 -23 0 -41 -1 -41 -2 0 -13 -50 -291 -52 -294 -2 -2 -19 59 -37 134 -19 75
-39 142 -45 147 -6 6 -29 9 -51 7z"/>
</g>
</svg>
